HIERARCHY
ROOT Hips
{
  OFFSET 53.586 96.2211 8.37905
  CHANNELS 6 Xposition Yposition Zposition Zrotation Xrotation Yrotation
  JOINT spine
  {
    OFFSET 0 8.13249 0.467659
    CHANNELS 3 Zrotation Xrotation Yrotation
    JOINT spine1
    {
      OFFSET 0 10.3498 0
      CHANNELS 3 Zrotation Xrotation Yrotation
      JOINT spine2
      {
        OFFSET 0 9.91699 0
        CHANNELS 3 Zrotation Xrotation Yrotation
        JOINT Neck
        {
          OFFSET 0 25.461 1.2139
          CHANNELS 3 Zrotation Xrotation Yrotation
          JOINT Head
          {
            OFFSET 0 7.69245 0
            CHANNELS 3 Zrotation Xrotation Yrotation
            End Site
            {
              OFFSET 0 18.62 -6.14063
            }
          }
        }
        JOINT RightShoulder
        {
          OFFSET -4.17575 10.7096 -0.581445
          CHANNELS 3 Zrotation Xrotation Yrotation
          JOINT RightArm
          {
            OFFSET 0 14.0466 0
            CHANNELS 3 Zrotation Xrotation Yrotation
            JOINT RightArmRoll
            {
              OFFSET 0 7.09098 0
              CHANNELS 3 Zrotation Xrotation Yrotation
              JOINT RightForeArm
              {
                OFFSET 0 20.6535 0
                CHANNELS 3 Zrotation Xrotation Yrotation
                JOINT RightForeArmRoll
                {
                  OFFSET 0 7.95718 0
                  CHANNELS 3 Zrotation Xrotation Yrotation
                  JOINT RightHand
                  {
                    OFFSET 0 15.9683 0
                    CHANNELS 3 Zrotation Xrotation Yrotation
                    End Site
                    {
                      OFFSET 0 0 0
                    }
                  }
                }
              }
            }
          }
        }
        JOINT LeftShoulder
        {
          OFFSET 4.17575 10.7096 -0.581445
          CHANNELS 3 Zrotation Xrotation Yrotation
          JOINT LeftArm
          {
            OFFSET 0 14.0466 0
            CHANNELS 3 Zrotation Xrotation Yrotation
            JOINT LeftArmRoll
            {
              OFFSET 0 7.09098 0
              CHANNELS 3 Zrotation Xrotation Yrotation
              JOINT LeftForeArm
              {
                OFFSET 0 20.6535 0
                CHANNELS 3 Zrotation Xrotation Yrotation
                JOINT LeftForeArmRoll
                {
                  OFFSET 0 7.95718 0
                  CHANNELS 3 Zrotation Xrotation Yrotation
                  JOINT LeftHand
                  {
                    OFFSET 0 15.9683 0
                    CHANNELS 3 Zrotation Xrotation Yrotation
                    End Site
                    {
                      OFFSET 0 0 0
                    }
                  }
                }
              }
            }
          }
        }
      }
    }
  }
  JOINT RightUpLeg
  {
    OFFSET -7.20834 -1.32182 -1.10884
    CHANNELS 3 Zrotation Xrotation Yrotation
    JOINT RightUpLegRoll
    {
      OFFSET 0 18.7238 0
      CHANNELS 3 Zrotation Xrotation Yrotation
      JOINT RightLeg
      {
        OFFSET 0 -23.1866 0
        CHANNELS 3 Zrotation Xrotation Yrotation
        JOINT RightLegRoll
        {
          OFFSET 0 23.2624 0
          CHANNELS 3 Zrotation Xrotation Yrotation
          JOINT RightFoot
          {
            OFFSET 0 19.3621 0
            CHANNELS 3 Zrotation Xrotation Yrotation
            JOINT RightToeBase
            {
              OFFSET 0 16.1857 0
              CHANNELS 3 Zrotation Xrotation Yrotation
              End Site
              {
                OFFSET 0.00686052 7.83863 -0.903522
              }
            }
          }
        }
      }
    }
  }
  JOINT LeftUpLeg
  {
    OFFSET 7.20834 -1.32182 -1.10884
    CHANNELS 3 Zrotation Xrotation Yrotation
    JOINT LeftUpLegRoll
    {
      OFFSET 0 18.7239 0
      CHANNELS 3 Zrotation Xrotation Yrotation
      JOINT LeftLeg
      {
        OFFSET 0 23.1865 0
        CHANNELS 3 Zrotation Xrotation Yrotation
        JOINT LeftLegRoll
        {
          OFFSET 0 23.4775 0
          CHANNELS 3 Zrotation Xrotation Yrotation
          JOINT LeftFoot
          {
            OFFSET 0 19.147 0
            CHANNELS 3 Zrotation Xrotation Yrotation
            JOINT LeftToeBase
            {
              OFFSET 0 16.1857 0
              CHANNELS 3 Zrotation Xrotation Yrotation
              End Site
              {
                OFFSET -0.0307459 7.83863 -0.903522
              }
            }
          }
        }
      }
    }
  }
}
MOTION
Frames: 4
Frame Time: 0.00208333
52.9689 96.2643 6.66318 -1.00439 -5.26499 0.136919 0.372585 -0.882965 0.0940269 0.746043 2.23725 0.135524 0.745158 3.88224 0.123113 -4.13345 11.4955 -2.72643 4.80043 -1.7738 -3.23677 58.9526 -9.26205 -5.75872 112.393 20.3245 21.6002 6.99036e-007 -3.07667e-007 -2.98762e-006 4.3043 0.0316384 -0.683994 -1.5099e-006 4.50416e-007 -3.04529 8.02965 -4.9514 0.697654 -60.7119 -7.21256 4.54513 -110.538 18.0445 -6.67886 6.76359e-006 2.26784e-006 4.87388e-006 -9.50226 0.0705248 1.09831 8.07534e-006 -1.23684e-007 3.04375 -8.02901 -4.95144 -0.697688 174.268 0.452608 3.14641 180 7.01551e-015 178.943 178.608 10.6088 179.682 1.5948e-006 1.71921e-006 0.084038 -17.7084 68.4393 19.8769 8.13649 25.2327 -3.48774 -174.161 -0.831121 -1.35298 4.5067e-006 -1.99009e-005 -1.00608 -1.26084 -12.2458 0.415758 -8.88845e-007 -1.61839e-006 -0.173464 19.2538 70.9146 -22.1464 -8.13654 25.2333 3.48678 
52.9715 96.2637 6.66817 -1.00449 -5.26658 0.140125 0.373269 -0.881813 0.0931422 0.747407 2.23959 0.134378 0.746537 3.88458 0.121943 -4.19096 11.487 -2.72531 4.88603 -1.76025 -3.24072 58.9281 -9.27786 -5.76834 112.423 20.3358 21.657 6.99036e-007 -3.07667e-007 -2.98762e-006 4.24886 0.0314353 -0.681926 -1.5099e-006 4.50416e-007 -3.04542 8.02965 -4.9514 0.697654 -60.7137 -7.21346 4.54573 -110.539 18.043 -6.72852 6.76359e-006 2.26784e-006 4.87388e-006 -9.4754 0.0705613 1.10297 8.07534e-006 -1.23684e-007 3.04423 -8.02901 -4.95144 -0.697688 174.269 0.450369 3.14485 180 7.01551e-015 178.943 178.611 10.6128 179.681 1.5948e-006 1.71921e-006 0.0840836 -17.7146 68.4434 19.8805 8.13649 25.2327 -3.48774 -174.16 -0.83294 -1.35466 4.5067e-006 -1.99009e-005 -1.00608 -1.26241 -12.2463 0.415414 -8.88845e-007 -1.61839e-006 -0.173464 19.255 70.9151 -22.1459 -8.13654 25.2333 3.48678 
52.9634 96.266 6.66908 -1.00462 -5.26858 0.143284 0.373931 -0.88056 0.0922285 0.748729 2.24215 0.133201 0.747875 3.88714 0.120743 -4.25013 11.4789 -2.72395 4.97442 -1.74754 -3.24448 58.9044 -9.29339 -5.77779 112.453 20.3469 21.7121 6.99036e-007 -3.07667e-007 -2.98762e-006 4.19493 0.0312529 -0.680011 -1.5099e-006 4.50416e-007 -3.04553 8.02965 -4.9514 0.697654 -60.7154 -7.21435 4.54633 -110.539 18.0413 -6.77636 6.76359e-006 2.26784e-006 4.87388e-006 -9.44956 0.0706154 1.10747 8.07534e-006 -1.23684e-007 3.0447 -8.02901 -4.95144 -0.697688 174.27 0.44762 3.14325 180 7.01551e-015 178.943 178.614 10.6167 179.681 1.5948e-006 1.71921e-006 0.0841131 -17.7207 68.4474 19.8841 8.13649 25.2327 -3.48774 -174.159 -0.835278 -1.3565 4.5067e-006 -1.99009e-005 -1.00608 -1.26409 -12.2466 0.415052 -8.88845e-007 -1.61839e-006 -0.173464 19.2561 70.9155 -22.1452 -8.13654 25.2333 3.48678 
52.9709 96.2658 6.6711 -1.00476 -5.27088 0.146409 0.374579 -0.879236 0.0912944 0.750021 2.24487 0.132002 0.749184 3.88985 0.119522 -4.31047 11.4712 -2.72242 5.06476 -1.73541 -3.24813 58.8812 -9.30874 -5.78712 112.482 20.358 21.7662 6.99036e-007 -3.07667e-007 -2.98762e-006 4.14206 0.031085 -0.678204 -1.5099e-006 4.50416e-007 -3.04562 8.02965 -4.9514 0.697654 -60.7171 -7.21524 4.54693 -110.54 18.0395 -6.82293 6.76359e-006 2.26784e-006 4.87388e-006 -9.42445 0.0706817 1.11188 8.07534e-006 -1.23684e-007 3.04517 -8.02901 -4.95144 -0.697688 174.271 0.444514 3.14161 180 7.01551e-015 178.943 178.617 10.6205 179.68 1.5948e-006 1.71921e-006 0.0841311 -17.7268 68.4514 19.8877 8.13649 25.2327 -3.48774 -174.158 -0.83798 -1.35846 4.5067e-006 -1.99009e-005 -1.00608 -1.26584 -12.2468 0.414676 -8.88845e-007 -1.61839e-006 -0.173464 19.2571 70.9159 -22.1445 -8.13654 25.2333 3.48678 
